<svg xmlns="http://www.w3.org/2000/svg" viewBox="0 0 304 174"><defs><style>.cls-1{isolation:isolate;}.cls-2{mix-blend-mode:overlay;}.cls-3{fill:#fff;}</style></defs><g class="cls-1"><g id="Layer_1" data-name="Layer 1"><g class="cls-2"><path class="cls-3" d="M17.85,124.64v-83H34.12v82.68c0,21-4.07,36.14-14.85,49.71H0C11.84,161.66,17.85,147.56,17.85,124.64ZM15.91,9.87A9.7,9.7,0,0,1,26,0,9.69,9.69,0,0,1,36.06,9.87,9.69,9.69,0,0,1,26,19.74,9.7,9.7,0,0,1,15.91,9.87Z"/><path class="cls-3" d="M49.5,89.38c0-28.74,20.5-49.89,47.72-49.89,27.05,0,47.38,21.15,47.38,49.89,0,28.56-20.33,49.71-47.38,49.71C70,139.09,49.5,118.12,49.5,89.38Zm78.84,0c0-22-15.21-34.73-31.12-34.73-16.08,0-31.28,12.69-31.28,34.73s15.2,34.55,31.28,34.55C113.13,123.93,128.34,111.24,128.34,89.38Z"/><path class="cls-3" d="M262.44,123.93c-12.2,0-21-6.17-21-21V55.71h27.4V41.61h-27.4V19.22H225.85V41.61H181.58V19.22H166V41.61H151.35v14.1h14.32v47.95c0,22.21,13.43,34.55,34.12,34.55a59.38,59.38,0,0,0,11.31-1.06v-14.1a49.48,49.48,0,0,1-8.49.88c-12.19,0-21-6.17-21-21V55.71H225.5v47.95c0,22.21,13.43,34.55,34.11,34.55a59.41,59.41,0,0,0,11.32-1.06v-14.1A49.58,49.58,0,0,1,262.44,123.93Z"/><path class="cls-3" d="M283.85,9.87a10.08,10.08,0,0,1,20.15,0,10.08,10.08,0,0,1-20.15,0Zm1.94,31.74h16.27V137H285.79Z"/></g></g></g></svg>